<?xml version="1.0" encoding="UTF-8" standalone="no"?>
<!-- Created with Inkscape (http://www.inkscape.org/) -->

<svg
   width="210mm"
   height="297mm"
   viewBox="0 0 210 297"
   version="1.1"
   id="svg1"
   xml:space="preserve"
   inkscape:version="1.3.2 (091e20e, 2023-11-25, custom)"
   sodipodi:docname="logobooking.svg"
   xmlns:inkscape="http://www.inkscape.org/namespaces/inkscape"
   xmlns:sodipodi="http://sodipodi.sourceforge.net/DTD/sodipodi-0.dtd"
   xmlns="http://www.w3.org/2000/svg"
   xmlns:svg="http://www.w3.org/2000/svg"><sodipodi:namedview
     id="namedview1"
     pagecolor="#ffffff"
     bordercolor="#111111"
     borderopacity="1"
     inkscape:showpageshadow="0"
     inkscape:pageopacity="0"
     inkscape:pagecheckerboard="1"
     inkscape:deskcolor="#d1d1d1"
     inkscape:document-units="mm"
     inkscape:zoom="4.2083894"
     inkscape:cx="276.70918"
     inkscape:cy="471.79569"
     inkscape:window-width="2560"
     inkscape:window-height="1377"
     inkscape:window-x="-8"
     inkscape:window-y="-8"
     inkscape:window-maximized="1"
     inkscape:current-layer="layer1" /><defs
     id="defs1"><filter
       inkscape:collect="always"
       style="color-interpolation-filters:sRGB"
       id="filter2"
       x="-0.0069370207"
       y="-0.4186629"
       width="1.013874"
       height="1.8373258"><feGaussianBlur
         inkscape:collect="always"
         stdDeviation="0.075557057"
         id="feGaussianBlur2" /></filter></defs><g
     inkscape:label="Layer 1"
     inkscape:groupmode="layer"
     id="layer1"><path
       d="m 67.981049,104.95572 c -0.104309,0.0139 -0.257297,0.0519 -0.337266,0.0795 -0.135604,0.0485 -1.265627,0.86818 -1.258672,0.91661 0,0.0104 2.698145,1.70524 5.990852,3.76676 l 5.994327,3.746 1.276055,1.29709 c 0.702353,0.71254 1.272578,1.30055 1.265624,1.30747 -0.0069,0.007 -0.820568,0.16257 -1.804557,0.34935 -0.983989,0.18332 -2.19398,0.41161 -2.687713,0.50501 -0.49721,0.0934 -0.917926,0.16948 -0.942263,0.16948 -0.02432,0 -0.771891,-0.78171 -1.665478,-1.73638 -0.99094,-1.06188 -1.7072,-1.79863 -1.835849,-1.89202 -0.260774,-0.18678 -0.75103,-0.44274 -0.910973,-0.47041 -0.121692,-0.0242 -1.168268,0.13835 -1.209989,0.18332 -0.01047,0.0139 0.04869,0.77825 0.128646,1.70179 0.08345,0.92352 0.146036,1.70178 0.142559,1.73291 -0.0069,0.0622 0.01046,0.0691 -2.892855,-1.30055 -0.917926,-0.43236 -1.762834,-0.8163 -1.877577,-0.85435 -0.469391,-0.1522 -1.154355,-0.0485 -1.415128,0.21445 -0.07298,0.0726 -0.132129,0.15911 -0.132129,0.19716 0,0.0415 0.775367,0.78863 2.228749,2.14106 1.223901,1.13799 2.277427,2.1134 2.336537,2.16529 l 0.111264,0.0934 -0.135603,0.11068 c -0.173849,0.14528 -0.264252,0.34244 -0.264252,0.59148 0,0.1764 0.01047,0.20407 0.10431,0.28363 0.177327,0.14527 0.678012,0.26633 1.269102,0.30438 l 0.13908,0.0104 1.08482,1.43545 c 0.594564,0.78864 1.119589,1.46312 1.161312,1.49425 0.111265,0.0934 0.559796,0.0865 0.817092,-0.0104 0.375515,-0.13836 0.365086,-0.1176 0.643245,-1.31093 0.135603,-0.58109 0.250342,-1.05843 0.25382,-1.06534 0.0069,-0.003 0.344221,0.0173 0.754506,0.045 1.227375,0.083 2.659895,0.12107 4.586147,0.12107 2.388691,0 3.407449,-0.0415 5.225916,-0.21099 0.417236,-0.0381 0.796226,-0.0657 0.844903,-0.0588 0.06261,0.007 0.538933,0.40469 1.442953,1.2037 l 1.349071,1.19332 0.0033,3.2756 c 0,1.80555 0.0069,3.27905 0.01394,3.27905 0.0069,0 0.361608,-0.0312 0.7858,-0.0691 0.83795,-0.0761 1.036141,-0.12452 1.303868,-0.31476 0.08691,-0.0622 0.219055,-0.20062 0.288591,-0.30785 0.152988,-0.22828 0.0452,0.003 2.538198,-5.4132 1.752406,-3.8048 2.020133,-4.36169 2.093147,-4.38244 0.04869,-0.0139 0.29207,-0.0485 0.538937,-0.0795 1.043096,-0.13144 2.983257,-0.48426 4.5027,-0.81631 4.787804,-1.05497 7.698064,-2.30364 8.330874,-3.57306 0.12517,-0.25595 0.13559,-0.29747 0.13559,-0.57417 0,-0.26288 -0.0104,-0.31822 -0.11473,-0.52576 -0.21557,-0.43583 -0.56328,-0.63299 -1.67591,-0.95813 -0.93531,-0.27325 -1.0118,-0.30092 -1.62028,-0.58801 -0.60848,-0.28709 -0.81014,-0.33897 -1.49162,-0.38394 -1.02225,-0.0692 -1.81847,0.0726 -3.0076,0.53614 -0.25731,0.1003 -0.500692,0.19023 -0.538945,0.20407 -0.03806,0.0139 -0.396378,0.0865 -0.799697,0.16256 -0.399859,0.0761 -1.262154,0.23867 -1.912348,0.35974 -3.671697,0.68832 -4.711322,0.88202 -4.773907,0.88202 -0.03824,0 -1.098725,-0.39778 -2.357399,-0.88549 -8.222904,-3.17866 -15.13168,-5.84894 -19.863861,-7.67871 -1.755878,-0.67795 -1.710677,-0.66758 -2.159209,-0.59839 z"
       id="path1"
       style="fill:#ab65dd;stroke:none;stroke-width:0.00346793;fill-opacity:1;opacity:0.76277372" /><path
       d="m 69.213236,104.69538 c -0.104309,0.0139 -0.257297,0.0519 -0.337266,0.0795 -0.135604,0.0485 -1.265627,0.86818 -1.258672,0.91661 0,0.0104 2.698145,1.70524 5.990852,3.76676 l 5.994327,3.746 1.276055,1.29709 c 0.702353,0.71254 1.272578,1.30055 1.265624,1.30747 -0.0069,0.007 -0.820568,0.16257 -1.804557,0.34935 -0.983989,0.18332 -2.19398,0.41161 -2.687713,0.50501 -0.49721,0.0934 -0.917926,0.16948 -0.942263,0.16948 -0.02432,0 -0.771891,-0.78171 -1.665478,-1.73638 -0.99094,-1.06188 -1.7072,-1.79863 -1.835849,-1.89202 -0.260774,-0.18678 -0.75103,-0.44274 -0.910973,-0.47041 -0.121692,-0.0242 -1.168268,0.13835 -1.209989,0.18332 -0.01047,0.0139 0.04869,0.77825 0.128646,1.70179 0.08345,0.92352 0.146036,1.70178 0.142559,1.73291 -0.0069,0.0622 0.01046,0.0691 -2.892855,-1.30055 -0.917926,-0.43236 -1.762834,-0.8163 -1.877577,-0.85435 -0.469391,-0.1522 -1.154355,-0.0485 -1.415128,0.21445 -0.07298,0.0726 -0.132129,0.15911 -0.132129,0.19716 0,0.0415 0.775367,0.78863 2.228749,2.14106 1.223901,1.13799 2.277427,2.1134 2.336537,2.16529 l 0.111264,0.0934 -0.135603,0.11068 c -0.173849,0.14528 -0.264252,0.34244 -0.264252,0.59148 0,0.1764 0.01047,0.20407 0.10431,0.28363 0.177327,0.14527 0.678012,0.26633 1.269102,0.30438 l 0.13908,0.0104 1.08482,1.43545 c 0.594564,0.78864 1.119589,1.46312 1.161312,1.49425 0.111265,0.0934 0.559796,0.0865 0.817092,-0.0104 0.375515,-0.13836 0.365086,-0.1176 0.643245,-1.31093 0.135603,-0.58109 0.250342,-1.05843 0.25382,-1.06534 0.0069,-0.003 0.344221,0.0173 0.754506,0.045 1.227375,0.083 2.659895,0.12107 4.586147,0.12107 2.388691,0 3.407449,-0.0415 5.225916,-0.21099 0.417236,-0.0381 0.796226,-0.0657 0.844903,-0.0588 0.06261,0.007 0.538933,0.40469 1.442953,1.2037 l 1.349071,1.19332 0.0033,3.2756 c 0,1.80555 0.0069,3.27905 0.01394,3.27905 0.0069,0 0.361608,-0.0312 0.7858,-0.0691 0.83795,-0.0761 1.036141,-0.12452 1.303868,-0.31476 0.08691,-0.0622 0.219055,-0.20062 0.288591,-0.30785 0.152988,-0.22828 0.0452,0.003 2.538198,-5.4132 1.752406,-3.8048 2.020133,-4.36169 2.093147,-4.38244 0.04869,-0.0139 0.29207,-0.0485 0.538937,-0.0795 1.043096,-0.13144 2.983257,-0.48426 4.502697,-0.81631 4.7878,-1.05497 7.69806,-2.30364 8.33087,-3.57306 0.12517,-0.25595 0.13559,-0.29747 0.13559,-0.57417 0,-0.26288 -0.0104,-0.31822 -0.11473,-0.52576 -0.21557,-0.43583 -0.56328,-0.63299 -1.67591,-0.95813 -0.93531,-0.27325 -1.0118,-0.30092 -1.62028,-0.58801 -0.60848,-0.28709 -0.81014,-0.33897 -1.49162,-0.38394 -1.02225,-0.0692 -1.81847,0.0726 -3.0076,0.53614 -0.25731,0.1003 -0.50069,0.19023 -0.53894,0.20407 -0.0381,0.0139 -0.39638,0.0865 -0.79969,0.16256 -0.399863,0.0761 -1.262159,0.23867 -1.912353,0.35974 -3.671697,0.68832 -4.711322,0.88202 -4.773907,0.88202 -0.03824,0 -1.098725,-0.39778 -2.357399,-0.88549 -8.222904,-3.17866 -15.13168,-5.84894 -19.863861,-7.67871 -1.755878,-0.67795 -1.710677,-0.66758 -2.159209,-0.59839 z"
       id="path1-6"
       style="opacity:0.762774;fill:#6665dd;fill-opacity:1;stroke:none;stroke-width:0.00346793"
       inkscape:transform-center-x="1.6448765"
       inkscape:transform-center-y="1.3781397" /><rect
       style="opacity:0.762774;fill:#b8d7f2;fill-opacity:1;stroke-width:0.214777;filter:url(#filter2)"
       id="rect2"
       width="26.140465"
       height="0.43313354"
       x="45.3181"
       y="130.23288"
       transform="matrix(0.98225691,-0.18754028,0.23917832,0.97097566,0,0)" /></g><style
     type="text/css"
     id="style1">
	.st0{fill:#FFFFFF;}
</style></svg>
